<?xml version="1.0" encoding="utf-8"?>
<!-- Generator: Adobe Illustrator 25.3.1, SVG Export Plug-In . SVG Version: 6.00 Build 0)  -->
<svg version="1.1" id="Layer_1" xmlns="http://www.w3.org/2000/svg" xmlns:xlink="http://www.w3.org/1999/xlink" x="0px" y="0px"
	 viewBox="0 0 612 792" style="enable-background:new 0 0 612 792;" xml:space="preserve">
<style type="text/css">
	.st0{fill:#F36F4C;}
	.st1{fill:#C2482A;}
	.st2{fill:#F79F8B;}
	.st3{fill:#E73B27;}
	.st4{fill:#FFD109;}
	.st5{fill:#F79D1F;}
	.st6{fill:#742B60;}
	.st7{fill:#5A1B4C;}
	.st8{fill:#FFFFFF;}
	.st9{fill:#FCDBC0;}
	.st10{fill:#F8AB9C;}
</style>
<g>
	<g>
		<g>
			<path class="st0" d="M84.59,324.41c0.99,19.12,1.76,32.89,20.91,38.64c13.65,4.1,35.41,0.59,52.84-3.63
				c15.37-3.73,27.36-8.02,27.45-8.16c1.27-2.09,1.83-3.88,1.94-5.4c0.37-5.32-4.87-7.37-4.88-7.94
				c-0.01-0.36-10.14,0.15-23.57-0.24c-13.69-0.4-30.79-1.75-44.09-5.94c-5.98-8.87-10.25-26.08-12.71-38.49
				c-1.66-8.36-2.5-14.56-2.5-14.56l-9.61,1.89l-3.58,0.7c0,0-0.57,6.03-1.15,13.85C84.93,304.8,84.22,317.2,84.59,324.41z"/>
			<path class="st1" d="M85.64,295.14c6.55,0.85,12.9-0.6,16.84-1.89c-1.66-8.36-2.5-14.56-2.5-14.56l-9.61,1.89l-3.58,0.7
				C86.79,281.29,86.21,287.32,85.64,295.14z"/>
			<path class="st1" d="M84.59,324.41c0.99,19.12,1.76,32.89,20.91,38.64c13.65,4.1,35.41,0.59,52.84-3.63
				c15.37-3.73,27.36-8.02,27.45-8.16c1.27-2.09,1.83-3.88,1.94-5.4c-15.29,3.16-73.6,12.3-86.18,2.16
				c-8.88-9.65-11.38-48.18-11.18-67.44l-3.58,0.7C86.79,281.29,83.92,311.36,84.59,324.41z"/>
			<path class="st1" d="M158.35,359.42c15.37-3.73,27.36-8.02,27.45-8.16c5.73-9.43-2.92-12.61-2.94-13.34
				c-0.01-0.36-10.14,0.15-23.57-0.24C158.95,344.38,158.58,352.48,158.35,359.42z"/>
		</g>
		<g>
			<g>
				<path class="st0" d="M84.78,289.44c0.45,0.02,0.88,0.02,1.28,0c3.96-0.15,6.19-1.78,7.2-3.73c0.37-0.71,0.58-1.46,0.65-2.2
					c0.16-1.63-2.22-6.23-4.41-10.06c-1.82-3.18-3.51-5.83-3.51-5.83c-0.24,0.01-0.99-0.75-2.13-1.26
					c-1.18-0.53-2.77-0.79-4.61,0.37c-3.61,2.26-3.77,6.06-3.79,10.66C75.46,281.98,78.43,289.21,84.78,289.44z"/>
				<path class="st0" d="M94.98,267.05c0.22,4.3,1.06,8.88,2.96,10.52c0.64,0.55,1.33,0.91,2.03,1.12c3,0.88,6.23-1.12,6.56-4.2
					c0.05-0.44,2.05-7.17,0.71-12.98c-0.33-1.44-0.87-2.83-1.7-4.05c-4.16-6.11-9.44-1.91-10.21,1.63
					c-0.11,0.51-0.21,1.21-0.28,2.03C94.91,262.75,94.87,264.87,94.98,267.05z"/>
				<path class="st0" d="M83.82,268.22c0.05,2.16,1.27,7.18,3.2,11.25c1.33,2.82,3.01,5.18,4.87,5.85c0.48,0.17,0.94,0.3,1.38,0.39
					c3.75,0.75,6.11-1.44,6.57-5.21c0.06-0.54,0.11-1.14,0.14-1.8c0.13-3.72-0.46-9.11-2.39-13.48c-0.38-0.87-0.82-1.71-1.32-2.49
					c-0.14-0.23-0.57-0.88-1.21-1.6c-1.37-1.54-3.73-3.39-6.44-2.12c-3.3,1.55-4.48,4.35-4.74,7.34
					C83.82,266.96,83.81,267.59,83.82,268.22z"/>
				<path class="st1" d="M86.07,289.43c3.96-0.15,6.19-1.78,7.2-3.73c3.75,0.75,6.11-1.44,6.57-5.21c0.06-0.54,0.11-1.14,0.14-1.8
					c3,0.88,6.23-1.12,6.56-4.2c0.05-0.44,2.05-7.17,0.71-12.98c-1.94,0.35-5.78,1.3-9.66,3.7c-0.87,0.54-1.75,1.15-2.6,1.84
					c-2.01,1.63-3.93,3.72-5.47,6.39c-0.69,1.19-1.3,2.49-1.82,3.92c-0.25,0.71-0.48,1.41-0.67,2.1
					C85.95,283.22,85.77,286.57,86.07,289.43z"/>
				<path class="st0" d="M96.98,286.26c-3.36,0.09-5.03-4.12-2.94-8.65c2.1-4.52,17.1-13.06,20.48-8.89
					c3.39,4.17,0.03,9.34-5.02,12.73C104.45,284.83,100.08,286.17,96.98,286.26z"/>
				<path class="st1" d="M99.74,254.58c0.16-0.01,0.25,0.27,0.09,0.35c-6.21,3.22-4.58,11.66-3.39,17.55
					c0.31,1.54-1.67,2.79-2.42,1.21C91.42,268.17,92.41,255.16,99.74,254.58z"/>
				<path class="st1" d="M82.68,265.82c1.26-5.48,6.66-9.5,11.46-6.16c0.38,0.26,0.07,0.87-0.33,0.67
					c-4.66-2.42-8.91,2.41-8.98,7.53c-0.06,4.75,2.08,9.57,5.57,12.33c0.94,0.75,0.12,2.52-0.89,1.79
					C84.71,278.53,81.18,272.35,82.68,265.82z"/>
			</g>
		</g>
	</g>
	<g>
		<g>
			<path class="st0" d="M507.84,331.69c-0.56,19.14-1.02,32.93-20.04,39.21c-13.56,4.47-35.39,1.57-52.9-2.18
				c-15.45-3.3-27.54-7.27-27.62-7.4c-1.32-2.06-1.92-3.83-2.06-5.34c-0.49-5.31,4.7-7.51,4.7-8.07c0-0.36,10.14-0.13,23.56-0.89
				c13.67-0.78,30.74-2.6,43.95-7.15c5.78-9.04,9.66-26.35,11.85-38.83c1.47-8.41,2.18-14.62,2.18-14.62l9.65,1.63l3.59,0.6
				c0,0,0.71,6.01,1.46,13.81C507.07,312.09,508.05,324.47,507.84,331.69z"/>
			<path class="st1" d="M506.14,302.46c-6.53,1.03-12.91-0.24-16.88-1.43c1.47-8.41,2.18-14.62,2.18-14.62l9.65,1.63l3.59,0.6
				C504.68,288.64,505.39,294.65,506.14,302.46z"/>
			<path class="st1" d="M507.84,331.69c-0.56,19.14-1.02,32.93-20.04,39.21c-13.56,4.47-35.39,1.57-52.9-2.18
				c-15.45-3.3-27.54-7.27-27.62-7.4c-1.32-2.06-1.92-3.83-2.06-5.34c15.36,2.74,73.85,10.26,86.2-0.22
				c8.66-9.89,10.29-48.48,9.67-67.73l3.59,0.6C504.68,288.64,508.22,318.62,507.84,331.69z"/>
			<path class="st1" d="M434.9,368.72c-15.45-3.3-27.54-7.27-27.62-7.4c-5.94-9.27,2.64-12.69,2.64-13.42
				c0-0.36,10.14-0.13,23.56-0.89C433.96,353.7,434.51,361.8,434.9,368.72z"/>
		</g>
		<g>
			<g>
				<path class="st0" d="M506.87,296.73c-0.45,0.03-0.87,0.04-1.28,0.03c-3.96-0.04-6.23-1.61-7.28-3.53
					c-0.38-0.7-0.61-1.45-0.7-2.18c-0.2-1.63,2.08-6.29,4.18-10.18c1.75-3.23,3.38-5.93,3.38-5.93c0.24,0,0.98-0.78,2.1-1.32
					c1.17-0.56,2.75-0.86,4.61,0.24c3.66,2.16,3.9,5.95,4.03,10.55C516.02,289.02,513.21,296.33,506.87,296.73z"/>
				<path class="st0" d="M496.17,274.64c-0.12,4.31-0.86,8.91-2.72,10.59c-0.63,0.56-1.31,0.95-2.01,1.18
					c-2.98,0.97-6.26-0.95-6.65-4.02c-0.06-0.44-2.21-7.12-1-12.95c0.3-1.45,0.81-2.85,1.61-4.1c4.03-6.23,9.39-2.17,10.25,1.35
					c0.12,0.51,0.24,1.2,0.33,2.02C496.15,270.34,496.24,272.45,496.17,274.64z"/>
				<path class="st0" d="M507.36,275.49c0,2.16-1.11,7.21-2.95,11.33c-1.27,2.85-2.89,5.26-4.74,5.98
					c-0.47,0.19-0.93,0.32-1.37,0.43c-3.73,0.86-6.14-1.27-6.68-5.03c-0.08-0.54-0.14-1.14-0.18-1.8
					c-0.22-3.72,0.26-9.12,2.09-13.54c0.36-0.88,0.78-1.73,1.26-2.52c0.14-0.23,0.55-0.89,1.18-1.63c1.34-1.57,3.65-3.49,6.39-2.29
					c3.34,1.46,4.58,4.22,4.9,7.2C507.33,274.24,507.36,274.87,507.36,275.49z"/>
				<path class="st1" d="M505.59,296.77c-3.96-0.04-6.23-1.61-7.28-3.53c-3.73,0.86-6.14-1.27-6.68-5.03
					c-0.08-0.54-0.14-1.14-0.18-1.8c-2.98,0.97-6.26-0.95-6.65-4.02c-0.06-0.44-2.21-7.12-1-12.95c1.95,0.3,5.8,1.14,9.74,3.43
					c0.88,0.51,1.77,1.1,2.64,1.77c2.05,1.57,4.01,3.61,5.61,6.24c0.71,1.17,1.35,2.45,1.9,3.87c0.27,0.71,0.51,1.4,0.72,2.08
					C505.56,290.55,505.82,293.89,505.59,296.77z"/>
				<path class="st0" d="M494.61,293.89c3.36,0,4.94-4.26,2.74-8.73c-2.2-4.47-17.38-12.58-20.68-8.32
					c-3.29,4.26,0.18,9.34,5.31,12.58C487.11,292.68,491.5,293.89,494.61,293.89z"/>
				<path class="st1" d="M491.13,262.3c-0.16-0.01-0.24,0.28-0.09,0.35c6.28,3.04,4.84,11.53,3.78,17.45
					c-0.28,1.55,1.73,2.74,2.44,1.14C499.76,275.66,498.48,262.68,491.13,262.3z"/>
				<path class="st1" d="M508.44,273.07c-1.38-5.44-6.87-9.31-11.59-5.84c-0.37,0.27-0.05,0.88,0.35,0.66
					c4.61-2.55,8.96,2.17,9.14,7.29c0.16,4.75-1.87,9.62-5.29,12.48c-0.93,0.77-0.07,2.52,0.93,1.77
					C506.7,285.83,510.09,279.55,508.44,273.07z"/>
			</g>
		</g>
	</g>
	<g>
		<path class="st0" d="M344.01,480.62c0,0,0.3,20.76,0.83,47.59c0.9,45.34,2.45,108.03,4.29,117.21c48.31,0,92.96,0,92.96,0
			s0,0,0-0.01c-0.14-0.54-4.65-18-21.22-27.59c-16.83-9.74-42.45-4.06-42.45-4.06l-11.56-94.78l-5.27-43.23l-8.36,2.32
			L344.01,480.62z"/>
		<path class="st1" d="M344.01,480.62c0,0,0.3,20.76,0.83,47.59c0.9,45.34,2.45,108.03,4.29,117.21c48.31,0,92.96,0,92.96,0
			s0,0,0-0.01c-0.33-0.62-7.32-13.79-39.89-17.04c-26.67-2.66-47.94,5.28-47.94,5.28l15-15.02c0,0-11.97-113.84-16.04-140.57
			L344.01,480.62z"/>
		<path class="st1" d="M344.01,480.62c0,0,0.3,20.76,0.83,47.59c6.28-2.35,14.66-6.01,22.01-9.23l-5.27-43.23L344.01,480.62z"/>
	</g>
	<g>
		<path class="st0" d="M248.13,480.62c0,0-0.3,20.76-0.83,47.59c-0.9,45.34-2.45,108.03-4.29,117.21c-48.31,0-92.96,0-92.96,0
			s0,0,0-0.01c0.14-0.54,4.65-18,21.22-27.59c16.83-9.74,42.45-4.06,42.45-4.06l11.56-94.78l5.27-43.23l8.36,2.32L248.13,480.62z"/>
		<path class="st1" d="M248.13,480.62c0,0-0.3,20.76-0.83,47.59c-0.9,45.34-2.45,108.03-4.29,117.21c-48.31,0-92.96,0-92.96,0
			s0,0,0-0.01c0.33-0.62,7.32-13.79,39.89-17.04c26.67-2.66,47.94,5.28,47.94,5.28l-15-15.02c0,0,11.97-113.84,16.04-140.57
			L248.13,480.62z"/>
		<path class="st1" d="M248.13,480.62c0,0-0.3,20.76-0.83,47.59c-6.28-2.35-14.66-6.01-22.01-9.23l5.27-43.23L248.13,480.62z"/>
	</g>
	<g>
		<g>
			<path class="st0" d="M418.9,350.46c-0.56,25.61-0.69,49.5-2.83,70.01c-2.09,19.96-6.06,36.71-14.19,48.72
				c-2.06,3.05-5.24,5.85-9.28,8.4c-22.29,14.05-70.86,20.61-104,21.69c-8.78,0.28-16.47,0.19-22.31-0.26
				c-10.49-0.8-20.98-0.94-30.92-1.84c-1.04-0.09-2.08-0.19-3.11-0.3c-18.95-2.07-35.64-7.49-46.12-26.47
				c-0.33-0.6-0.66-1.23-0.97-1.87c-5.76-11.72-8.9-30.23-10.26-51.86c-2.27-36.06,0.4-80.82,4.1-117.36
				c6.04-59.67,19.29-78.92,31.84-86.46c13.85-8.32,41.19-13.78,68.64-16.47c4.05-0.39,8.11-0.73,12.12-1.01
				c13.35-0.92,26.25-1.18,37.11-0.78c5.84,0.22,11.1,0.62,15.52,1.21c31.84,4.26,53.79,12.18,63.13,31.66
				C416.71,246.96,420,299.93,418.9,350.46z"/>
			<path class="st1" d="M418.9,350.46c-0.56,25.61-0.69,49.5-2.83,70.01c-2.09,19.96-6.06,36.71-14.19,48.72
				c-2.06,3.05-5.24,5.85-9.28,8.4c-22.29,14.05-70.86,20.61-104,21.69c-8.78,0.28-16.47,0.19-22.31-0.26
				c-10.49-0.8-20.98-0.94-30.92-1.84c-0.67-0.34-1.34-0.67-2.01-1.02c94.97-2.25,136.68-22.1,142.72-38.54
				c10.43-40.8,15.37-207.01,8.23-228.93c-5.62-17.27-40.88-29.62-55.59-34.09c5.84,0.22,11.1,0.62,15.52,1.21
				c31.84,4.26,53.79,12.18,63.13,31.66C416.71,246.96,420,299.93,418.9,350.46z"/>
			<path class="st2" d="M181.66,321.23c-1.31,13.09-4.59,59.31,0.84,80.91c0.31-67.53,7.99-131.99,7.99-131.99
				S185.43,283.61,181.66,321.23z"/>
		</g>
		<path class="st3" d="M292.1,260.35c-0.55,15.83-3.84,25.57-12.63,15.22c-7.45-8.78-1.08-62.63,0.02-79.18
			c4.05-0.39,8.11-0.73,12.12-1.01C291.84,207.02,292.57,246.9,292.1,260.35z"/>
		<g>
			<path class="st4" d="M219.58,446.11c-2.93,15.42-20.12,24.16-34.4,22.43c-5.76-11.72-8.9-30.23-10.26-51.86
				c5.47-3.14,16.58-8.01,27.46-3.44C215.92,418.92,223.82,427.96,219.58,446.11z"/>
			<path class="st4" d="M265.72,408.67c-2.88-3.79-7.35-5.12-11.44-4.19c-4.75-0.26-9.56,3.88-11.1,8.87
				c-2.07,6.72,1.03,14.54,6.86,17.41c5.56,2.74,12.55,1.2,16.22-4.35C269.7,421.23,269.46,413.58,265.72,408.67z"/>
			<path class="st4" d="M393.81,367.26c-2.12-2.78-5.08-4.24-8.12-4.45c-1.11-0.08-2.22,0.01-3.31,0.26
				c-4.75-0.26-9.56,3.88-11.1,8.87c-2.07,6.72,1.03,14.54,6.86,17.41c1.87,0.92,3.91,1.36,5.93,1.32
				c3.96-0.08,7.85-1.99,10.29-5.66C397.79,379.82,397.55,372.17,393.81,367.26z"/>
			<path class="st5" d="M394.36,385.01c-2.43,3.67-6.32,5.59-10.29,5.66c0.61-8.98,1.15-18.35,1.62-27.85
				c3.05,0.21,6.01,1.67,8.12,4.45C397.55,372.17,397.79,379.82,394.36,385.01z"/>
			<path class="st4" d="M288.16,497.05c-0.42-1.56-1.01-3.04-1.73-4.45c-1.98-3.89-4.96-7.17-8.12-9.87
				c-8.22-7.02-19.82-10.71-29.84-6.41c-4.97,2.13-9.17,6-12.01,11.01c-1.45,2.57-2.67,5.68-3.08,8.84
				c0.67,0.35,1.34,0.68,2.01,1.02h0c0.08,0.01,0.16,0.02,0.24,0.02c0.4,0.04,0.8,0.07,1.2,0.11c0.34,0.03,0.67,0.06,1.01,0.08
				c0.43,0.03,0.87,0.06,1.3,0.1c1.26,0.09,2.53,0.17,3.8,0.25c0.64,0.04,1.27,0.07,1.91,0.11c1.28,0.07,2.56,0.13,3.85,0.2
				c0.1,0,0.2,0.01,0.31,0.02c1.42,0.07,2.85,0.14,4.29,0.21c1.06,0.05,2.12,0.1,3.18,0.15c0.08,0,0.17,0.01,0.25,0.01
				c1.19,0.06,2.39,0.13,3.59,0.19c0.92,0.05,1.84,0.11,2.76,0.17c0.42,0.02,0.83,0.05,1.25,0.08c0.65,0.04,1.31,0.09,1.97,0.14
				c5.83,0.45,13.53,0.54,22.31,0.26C288.51,498.54,288.36,497.79,288.16,497.05z"/>
			<path class="st4" d="M362.42,415.98c-5.47-13.29-18.51-19.65-31.18-16.84c-23.5,5.21-31.62,41.9-11.77,57.58
				c10.7,8.45,25.75,6.69,35.74-2.19C365.61,445.28,367.81,429.08,362.42,415.98z"/>
			<path class="st4" d="M405.16,420.65c-23.18,5.14-31.4,40.92-12.56,56.93c4.04-2.55,7.22-5.35,9.28-8.4
				c8.12-12.01,12.1-28.76,14.19-48.72C412.54,419.79,408.83,419.84,405.16,420.65z"/>
			<path class="st5" d="M288.6,499.28c-8.78,0.28-16.47,0.19-22.31-0.26c-0.66-0.05-1.31-0.1-1.97-0.14
				c-0.42-0.03-0.83-0.06-1.25-0.08c-0.92-0.06-1.84-0.12-2.76-0.17c-1.2-0.07-2.4-0.13-3.59-0.19c-0.08,0-0.17-0.01-0.25-0.01
				c-1.06-0.05-2.12-0.11-3.18-0.15c-1.44-0.07-2.87-0.14-4.29-0.21c-0.11-0.01-0.21-0.01-0.31-0.02c-1.29-0.06-2.58-0.13-3.85-0.2
				c-0.64-0.04-1.28-0.07-1.91-0.11c-1.27-0.08-2.54-0.16-3.8-0.25c-0.44-0.03-0.87-0.07-1.3-0.1c-0.34-0.02-0.67-0.05-1.01-0.08
				c-0.4-0.03-0.8-0.07-1.2-0.11c-0.08,0-0.16-0.01-0.24-0.02h0c-0.67-0.34-1.34-0.67-2.01-1.02c19.99-0.47,37.62-1.73,53.06-3.56
				c0.72,1.4,1.31,2.89,1.73,4.45C288.36,497.79,288.51,498.54,288.6,499.28z"/>
		</g>
	</g>
	<g>
		<g>
			<g>
				<g>
					<g>
						<path class="st6" d="M387.93,266.29c0,0-8.54,36.5-34.1,62.66c-4.37,4.47-9.23,8.63-14.63,12.26c-0.1,0.07-0.2,0.14-0.3,0.2
							c-13.35,8.9-29.98,14.51-50.51,13.37c-12.15-0.68-22.77-3.16-32.05-6.87c-0.09-0.03-0.18-0.07-0.26-0.11
							c-7.07-2.85-13.35-6.42-18.93-10.44c-33.81-24.36-41.72-65.39-41.72-65.39s6.65,3.56,19.03,7.73
							c6.1,2.06,13.59,4.27,22.36,6.28c0.03,0.01,0.07,0.02,0.1,0.02c7.07,1.62,14.98,3.1,23.65,4.26c1.21,0.17,2.44,0.32,3.69,0.47
							c6.94,0.84,14.34,1.47,22.17,1.8c0.41,0.02,0.83,0.03,1.24,0.04c1.43,0.05,2.86,0.09,4.28,0.09
							c8.24,0.07,16.18-0.48,23.73-1.48c1.04-0.14,2.07-0.28,3.1-0.44c8.56-1.27,16.58-3.1,23.91-5.19
							c0.51-0.14,1.01-0.29,1.51-0.43c8.51-2.49,16.04-5.31,22.35-8C380.01,271.41,387.93,266.29,387.93,266.29z"/>
						<path class="st7" d="M271.06,343.96c-1.5-2.53-8.3-13.8,0.49-23c8.78-9.2,16.35-5.68,15.37,1.62
							c-0.98,7.31-0.84,12.48,5.12,14.88c5.37,2.16,6.1-4.06,4.64-10.55c-1.46-6.49-0.98-8.12,4.39-11.91s13.91-1.89,14.64,8.12
							c0.73,10.01,0.24,21.11-8.05,23.54C299.36,349.1,276.19,352.62,271.06,343.96z"/>
					</g>
					<g>
						<g>
							<g>
								<path class="st8" d="M236.82,285.98c-0.59,1.58-1.39,3.7-2.34,6.09c-3.6,9.09-9.29,22.14-13.19,24.55
									c-4.51,2.8-6.72-19.59-6.89-31.97c-0.03-1.94-0.01-3.64,0.06-4.96C220.56,281.76,228.05,283.97,236.82,285.98z"/>
								<path class="st9" d="M236.82,285.98c-0.59,1.58-1.39,3.7-2.34,6.09c-8.98-2.56-15.67-5.36-20.08-7.41
									c-0.03-1.94-0.01-3.64,0.06-4.96C220.56,281.76,228.05,283.97,236.82,285.98z"/>
							</g>
							<g>
								<path class="st8" d="M260.57,290.26c0.01,1.95-0.08,4.49-0.34,6.97c-0.34,3.25-0.99,6.4-2.12,8.03
									c-2.82,4.06-6.39,1.08-16.33-1.62c-4.83-1.31-5.9-6.32-5.72-11.13c0.09-2.37,0.48-4.7,0.87-6.5
									C244,287.62,251.9,289.1,260.57,290.26z"/>
								<path class="st9" d="M236.92,286c7.07,1.62,14.98,3.1,23.65,4.26c0.01,1.95-0.08,4.49-0.34,6.97
									c-9.3-1.16-17.36-2.86-24.18-4.73C236.14,290.13,236.53,287.81,236.92,286z"/>
							</g>
							<g>
								<path class="st8" d="M287.17,307.69c-2.2,2.44-15.37,2.98-20.01,0c-2.06-1.32-2.89-5.67-3.09-10.03
									c-0.11-2.49-0.01-4.99,0.19-6.93c6.94,0.84,14.34,1.47,22.17,1.8c0.41,0.02,0.83,0.03,1.24,0.04
									c0.44,1.8,0.7,3.99,0.78,6.14C288.6,302.71,288.16,306.59,287.17,307.69z"/>
								<path class="st9" d="M287.68,292.59c0.44,1.8,0.7,3.99,0.78,6.14c-8.86,0.12-16.98-0.29-24.38-1.06
									c-0.11-2.49-0.01-4.99,0.19-6.93c6.94,0.84,14.34,1.47,22.17,1.8C286.85,292.56,287.26,292.57,287.68,292.59z"/>
							</g>
							<g>
								<path class="st8" d="M315.76,296.78c-0.19,4.38-1.02,8.77-3.09,10.1c-4.64,2.98-17.81,2.44-20.01,0
									c-0.93-1.04-1.38-4.5-1.31-8.21c0.04-2.05,0.23-4.16,0.59-5.99c8.24,0.07,16.18-0.48,23.73-1.48
									C315.8,292.88,315.85,294.83,315.76,296.78z"/>
								<path class="st9" d="M315.68,291.2c0.12,1.68,0.16,3.63,0.08,5.58c-8.66,1.09-16.79,1.68-24.4,1.89
									c0.04-2.05,0.23-4.16,0.59-5.99C300.19,292.75,308.13,292.2,315.68,291.2z"/>
							</g>
							<g>
								<path class="st8" d="M343.28,292.03c-0.08,4.34-1.39,8.52-5.74,9.71c-9.95,2.71-13.52,5.68-16.33,1.62
									c-1.01-1.46-1.64-4.15-2.01-7.03c-0.24-1.87-0.37-3.82-0.42-5.57c8.56-1.27,16.58-3.1,23.91-5.19
									C343.04,287.5,343.32,289.79,343.28,292.03z"/>
								<path class="st9" d="M342.69,285.58c0.35,1.93,0.63,4.21,0.59,6.45c-4.63,0.96-9.61,1.92-14.98,2.88
									c-3.09,0.54-6.13,1.01-9.1,1.42c-0.24-1.87-0.37-3.82-0.42-5.57C327.34,289.49,335.36,287.66,342.69,285.58z"/>
							</g>
							<g>
								<path class="st8" d="M366.9,286.33c-0.35,12.6-2.56,32.97-6.87,30.29c-4-2.49-9.9-16.18-13.48-25.29
									c-1-2.53-1.81-4.71-2.36-6.19c8.51-2.49,16.04-5.31,22.35-8C366.9,278.2,367.02,281.75,366.9,286.33z"/>
								<path class="st9" d="M366.9,286.33c-5.81,1.65-12.55,3.32-20.34,5.01c-1-2.53-1.81-4.71-2.36-6.19
									c8.51-2.49,16.04-5.31,22.35-8C366.9,278.2,367.02,281.75,366.9,286.33z"/>
							</g>
						</g>
						<g>
							<g>
								<path class="st8" d="M256.07,347.8c-7.07-2.85-13.35-6.42-18.93-10.44c0.25-1.57,0.63-3.65,1.1-5.89
									c1.29-6.11,3.33-13.48,5.68-15.26c3.16-2.39,9.48,12.86,11.52,24.44C255.91,343.32,256.15,345.79,256.07,347.8z"/>
								<path class="st9" d="M255.44,340.66c0.47,2.66,0.71,5.14,0.64,7.15c-7.07-2.85-13.35-6.42-18.93-10.44
									c0.25-1.57,0.63-3.65,1.1-5.89C242.57,334.16,248.9,337.75,255.44,340.66z"/>
							</g>
							<g>
								<path class="st8" d="M338.89,341.41c-13.35,8.9-29.98,14.51-50.51,13.37c-12.15-0.68-22.77-3.16-32.05-6.87
									c0.83-2.39,1.59-4.34,2.3-5.89c3.59-7.91,5.87-6.16,10.17-5.5c4.62,0.71,8.14,4.03,9.45,10.38
									c0.19,0.94,0.34,1.94,0.44,3.01c0.17-1.05,0.34-2.01,0.51-2.89c1.69-8.56,3.69-8.94,9-9.49c5.46-0.57,7.9,1.69,9.09,10.25
									c0.08,0.61,0.16,1.25,0.24,1.93c0.09-0.69,0.19-1.34,0.3-1.96c1.4-8.11,4.1-10.23,6.47-10.42
									c4.38-0.35,9.48-0.71,12.53,7.05c0.45,1.12,0.85,2.42,1.19,3.91c0.34-1.72,0.72-3.27,1.14-4.66
									c2.32-7.66,5.86-10.61,10.02-10.96c2.44-0.22,4.44,0.99,5.98,2.63C337.09,337.31,338.33,339.99,338.89,341.41z"/>
								<path class="st9" d="M338.89,341.41c-13.35,8.9-29.98,14.51-50.51,13.37c-12.15-0.68-22.77-3.16-32.05-6.87
									c0.83-2.39,1.59-4.34,2.3-5.89c3.42,1.38,6.81,2.52,9.92,3.17c2.94,0.62,6.19,1.23,9.7,1.71c0.19,0.94,0.34,1.94,0.44,3.01
									c0.17-1.05,0.34-2.01,0.51-2.89c5.51,0.71,11.62,1.1,18.1,0.75c0.08,0.61,0.16,1.25,0.24,1.93c0.09-0.69,0.19-1.34,0.3-1.96
									c6.08-0.36,12.48-1.37,19-3.37c0.45,1.12,0.85,2.42,1.19,3.91c0.34-1.72,0.72-3.27,1.14-4.66c2.77-0.94,5.57-2.07,8.37-3.41
									c2.73-1.72,5.28-3.36,7.63-4.93C337.09,337.31,338.33,339.99,338.89,341.41z"/>
							</g>
							<g>
								<path class="st8" d="M353.82,328.95c-4.37,4.47-9.23,8.63-14.63,12.26c-0.08-1.62-0.2-4.74-0.27-8.44
									c-0.18-9.78,0.07-23.63,2.89-24.67c2.59-0.96,7.28,6.41,10.32,15.12C352.79,325.09,353.36,327.02,353.82,328.95z"/>
								<path class="st9" d="M353.82,328.95c-4.37,4.47-9.23,8.63-14.63,12.26c-0.08-1.62-0.2-4.74-0.27-8.44
									c5.57-3.8,9.94-7.01,13.21-9.56C352.79,325.09,353.36,327.02,353.82,328.95z"/>
							</g>
						</g>
					</g>
					<g>
						<g>
							<path class="st1" d="M384.63,266.76c-3.47,10.39-7.62,20.33-12.26,30.14c-1.1,2.32-1.95,4.79-3.14,7.07
								c-1.31,2.51-2.8,4.89-4.45,7.14c-2.53,3.46-5.31,6.6-8.18,9.7c-5.95,6.44-12.21,12.13-19.41,16.8
								c-7.12,4.61-14.58,7.76-22.49,10.29c-15.5,4.95-32.13,5.23-47.69,0.41c-15.13-4.68-28.76-14.06-40.5-25.54
								c-6.79-6.64-12.9-13.6-17.66-22.19c-4.81-8.67-8.26-17.9-11.02-27.59c-0.38-1.32-1.98-0.74-1.82,0.56
								c2.25,18.36,10.96,35.67,21.08,50.13c10.47,14.97,25.78,25.63,41.95,31.37c16.67,5.92,34.43,6.01,51.42,1.78
								c8.64-2.15,16.64-5.89,24.5-10.37c7.6-4.33,14.67-9.84,20.99-16.2c7.74-7.78,12.79-17.51,18.66-26.95
								c3.3-5.31,5.52-11.3,7.6-17.3c2.09-6.02,3.97-12.11,5.73-18.26C388.61,265.41,385.39,264.5,384.63,266.76z"/>
							<path class="st1" d="M385.34,265.1c-3.07,0.58-5.97,1.88-8.95,2.9c-2.98,1.03-5.94,2.1-8.9,3.18
								c-5.81,2.13-11.67,4.08-17.56,5.91c-11.82,3.67-23.6,7.67-35.8,9.48c-25.05,3.71-50.62-0.16-75.18-5.83
								c-6.98-1.61-13.94-3.33-20.87-5.16c-6.92-1.83-13.85-3.9-20.98-4.39c-1.13-0.08-1.6,1.83-0.58,2.39
								c5.74,3.18,11.92,5.16,18.09,7.05c6.18,1.89,12.37,3.76,18.61,5.38c12.58,3.27,25.27,5.88,38.14,7.33
								c12.88,1.46,25.78,1.46,38.66,0c12.45-1.42,24.98-3.89,37.02-7.66c6.78-2.12,13.41-4.87,20.04-7.48
								c3.27-1.29,6.54-2.6,9.76-4.04c3.39-1.51,6.95-2.74,10.12-4.77C389.18,267.99,387.61,264.67,385.34,265.1z"/>
						</g>
					</g>
				</g>
				<path class="st1" d="M229.57,347.98c0,0,27.52,28.24,64.05,25.17c48.31-4.06,64.41-31.66,64.41-31.66s-17.4,46.28-67.54,45.88
					C238.02,386.94,229.57,347.98,229.57,347.98z"/>
			</g>
			<path class="st10" d="M413.55,242.48c-4.53-5.52-43.43,2.98-41.96,11.1c1.46,8.12,24.4,4.33,32.69,1.35
				C412.57,251.95,415.99,245.45,413.55,242.48z"/>
			<path class="st10" d="M170.05,250.87c4.53-5.52,43.43,2.98,41.96,11.1c-1.46,8.12-24.4,4.33-32.69,1.35
				C171.03,260.34,167.61,253.84,170.05,250.87z"/>
		</g>
		<g>
			<g>
				<g>
					<path class="st8" d="M360.63,243.25c-0.99,10.76-10.69,25.47-31.47,23.49c-18.62-1.77-24.37-17.63-21.38-30.7
						c0.35-1.52,0.81-3.01,1.39-4.42c0.11-0.26,0.22-0.52,0.33-0.78c5.71-13.01,18.19-17.36,25.4-17.44
						c13.61-0.16,21.7,10.35,24.59,20.19c0.26,0.86,0.47,1.72,0.64,2.56C360.66,238.7,360.83,241.14,360.63,243.25z"/>
					<path class="st6" d="M333.2,238.82l16.53-2.01c0,0-1.13-13.31-12.34-14.95c-11.21-1.63-22.16,7.85-23.45,18.45
						c-1,8.2,3.61,18.81,14.96,19.61c14.27,1,19.93-12.69,19.93-12.69L333.2,238.82z"/>
					<path class="st9" d="M360.63,243.25c-0.99,10.76-10.69,25.47-31.47,23.49c-18.62-1.77-24.37-17.63-21.38-30.7
						c0.85,9.33,5.34,26.47,26.72,26.47c17.32,0,24.33-16.13,25-28.93c0.26,0.86,0.47,1.72,0.64,2.56
						C360.66,238.7,360.83,241.14,360.63,243.25z"/>
				</g>
				<g>
					<path class="st6" d="M361.87,203.9c0,0,8.54,2.44,8.05,4.33c-0.49,1.89-61.73,14.07-68.8,15.42
						c-0.71-0.56-1.04-7.11-1.13-14.64c-0.13-10.66,0.22-23.31,0.64-23.79c0.73-0.81,2.93,8.93,2.93,8.93
						c6.05-2.15,62.78-24.07,65.71-18.19c1.01,2.03-7.64,6.01-7.64,6.01s8.54,0.54,9.03,3.52c0.49,2.98-9.27,7.85-9.27,7.85
						s8.05,0.54,9.52,2.44C372.36,197.68,361.87,203.9,361.87,203.9z"/>
					<path class="st7" d="M361.87,203.9c0,0,8.54,2.44,8.05,4.33c-0.49,1.89-61.73,14.07-68.8,15.42
						c-0.71-0.56-1.04-7.11-1.13-14.64l61.4-15.67c0,0,8.05,0.54,9.52,2.44C372.36,197.68,361.87,203.9,361.87,203.9z"/>
				</g>
			</g>
			<g>
				<g>
					<path class="st8" d="M266.22,243.25c-0.99,10.76-10.67,27.66-31.45,25.68c-20.78-1.98-25.56-23.71-20.02-37.32
						c0.11-0.26,0.22-0.52,0.33-0.78c0.05-0.11,0.1-0.22,0.15-0.32c5.77-12.75,18.11-17.03,25.25-17.12
						c13.48-0.16,21.55,10.16,24.51,19.92c0.29,0.95,0.53,1.9,0.72,2.83C266.25,238.7,266.42,241.14,266.22,243.25z"/>
					<path class="st6" d="M238.79,238.82l16.53-2.01c0,0-1.13-13.31-12.34-14.95c-11.21-1.63-22.16,7.85-23.45,18.45
						c-1,8.2,3.61,18.81,14.96,19.61c14.27,1,19.93-12.69,19.93-12.69L238.79,238.82z"/>
					<path class="st9" d="M266.22,243.25c-0.99,10.76-10.67,27.66-31.45,25.68c-20.78-1.98-25.56-23.71-20.02-37.32
						c0.11-0.26,0.22-0.52,0.33-0.78c0.05-0.11,0.1-0.22,0.15-0.32c-0.49,7.89,0.37,20.71,9.65,28.07
						c14.09,11.16,32.39-1.01,36.23-9.54c2.38-5.28,3.43-11.64,3.88-15.73c0.29,0.95,0.53,1.9,0.72,2.83
						C266.25,238.7,266.42,241.14,266.22,243.25z"/>
				</g>
				<g>
					<path class="st6" d="M273,214.36c-0.12,6.71-0.45,12.25-1.1,12.76c-7.07-1.35-68.32-13.53-68.8-15.42
						c-0.49-1.9,8.05-4.33,8.05-4.33s-10.49-6.22-9.03-8.12c1.46-1.89,9.52-2.44,9.52-2.44l-0.01,0c-0.29-0.14-9.74-4.91-9.26-7.84
						c0.49-2.98,9.03-3.52,9.03-3.52s-10.74-9.74-7.08-10.82c3.66-1.08,65.14,23,65.14,23s2.2-9.74,2.93-8.93
						C272.83,189.2,273.2,203.37,273,214.36z"/>
					<path class="st7" d="M273,214.36c-0.12,6.71-0.45,12.25-1.1,12.76c-7.07-1.35-68.32-13.53-68.8-15.42
						c-0.49-1.9,8.05-4.33,8.05-4.33s-10.49-6.22-9.03-8.12c1.46-1.89,9.52-2.44,9.52-2.44L273,214.36z"/>
				</g>
			</g>
		</g>
	</g>
</g>
</svg>
