<?xml version="1.0" encoding="utf-8"?>
<!-- Generator: Adobe Illustrator 25.3.1, SVG Export Plug-In . SVG Version: 6.00 Build 0)  -->
<svg version="1.1" id="Layer_1" xmlns="http://www.w3.org/2000/svg" xmlns:xlink="http://www.w3.org/1999/xlink" x="0px" y="0px"
	 viewBox="0 0 612 792" style="enable-background:new 0 0 612 792;" xml:space="preserve">
<style type="text/css">
	.st0{fill:#DC8227;}
	.st1{fill:#935224;}
	.st2{fill:#E6E6E6;}
	.st3{fill:#ED9D3E;}
	.st4{fill:#FBAD46;}
	.st5{fill:#C17230;}
	.st6{fill:#FCC299;}
	.st7{fill:#E99E6C;}
	.st8{fill:#FFF0DF;}
	.st9{fill:#EFD4B9;}
	.st10{fill:#F6B589;}
	.st11{fill:#F6957F;}
	.st12{fill:#B36027;}
	.st13{fill:#966226;}
	.st14{fill:#E69292;}
	.st15{fill:#70451B;}
</style>
<g>
	<g>
		<path class="st0" d="M524,618.56c0-6.05-3.59-11.29-8.82-13.85c1.79-5.37,0.55-11.48-3.87-15.75c-4.41-4.26-10.74-5.47-16.3-3.74
			c-2.65-5.05-8.07-8.52-14.34-8.52c-6.27,0-11.68,3.47-14.34,8.52c-5.56-1.73-11.88-0.53-16.3,3.74
			c-4.41,4.26-5.66,10.38-3.87,15.75c-5.23,2.56-8.82,7.8-8.82,13.85c0,6.05,3.59,11.29,8.82,13.85
			c-1.79,5.37-0.55,11.48,3.87,15.75c4.41,4.26,10.74,5.47,16.3,3.74c2.65,5.05,8.07,8.52,14.34,8.52c6.27,0,11.68-3.47,14.34-8.52
			c5.56,1.73,11.88,0.53,16.3-3.74c4.41-4.26,5.66-10.38,3.87-15.75C520.41,629.85,524,624.62,524,618.56z"/>
		<ellipse class="st1" cx="480.68" cy="618.56" rx="27.24" ry="26.32"/>
	</g>
	<g>
		<ellipse class="st2" cx="312.4" cy="670.74" rx="109.42" ry="15.26"/>
		<g>
			<g>
				<ellipse class="st3" cx="312.39" cy="356.68" rx="127.67" ry="105.68"/>
				<ellipse class="st4" cx="312.39" cy="421.21" rx="154.35" ry="149.14"/>
			</g>
			<path class="st5" d="M488.49,555.04c-24.81-14.98-38.38-41.31-38.38-41.31l-137.73-50.82l-137.73,50.82
				c0,0-13.57,26.33-38.38,41.31c0,0,40.85,22.07,75.76,0c0,0-5.43,20.7-20.66,30.47c0,0,40.11,31.32,121-4.67
				c80.89,35.99,121,4.67,121,4.67c-15.23-9.77-20.66-30.47-20.66-30.47C447.64,577.11,488.49,555.04,488.49,555.04z"/>
			<g>
				<g>
					<path class="st6" d="M258.76,534.3l-46.67,45.1l-3.67-3.55c-2.03-1.96-5.32-1.96-7.35,0c-2.03,1.96-2.03,5.14,0,7.1l3.67,3.55
						L204,587.2c-7.55,7.3-7.55,19.13,0,26.43v0c7.55,7.3,19.8,7.3,27.35,0l54.76-52.91L258.76,534.3z"/>
					<path class="st6" d="M366.03,534.3l46.67,45.1l3.67-3.55c2.03-1.96,5.32-1.96,7.35,0c2.03,1.96,2.03,5.14,0,7.1l-3.67,3.55
						l0.74,0.71c7.55,7.3,7.55,19.13,0,26.43v0c-7.55,7.3-19.8,7.3-27.35,0l-54.76-52.91L366.03,534.3z"/>
				</g>
				<path class="st6" d="M377.06,670.74H247.73c0-93.16,19.96-124.97,19.96-124.97h89.4C357.1,545.77,377.06,577.58,377.06,670.74z"
					/>
				<g>
					<path class="st0" d="M247.73,670.74h129.33c0-4.8-0.07-9.39-0.17-13.87h-129C247.79,661.34,247.73,665.94,247.73,670.74z"/>
				</g>
				<path class="st7" d="M328.04,639.49h-31.29c-1.1,0-2,0.86-2,1.93s0.89,1.93,2,1.93h13.65v27.39h3.99v-27.39h13.65
					c1.1,0,2-0.86,2-1.93S329.14,639.49,328.04,639.49z"/>
				<g>
					<path class="st8" d="M357.1,545.77c0,0,23.37,33.68,47.53,95.34c0,0-88.08,21.94-185.75-2.96c0,0,19.42-54.74,48.82-92.38
						h13.21c0,0,0.93,23.56,33.04,23.56c32.11,0,30.24-23.56,30.24-23.56H357.1z"/>
					<path class="st4" d="M281.25,564.65c0,6.65-5.58,12.05-12.47,12.05s-12.47-5.39-12.47-12.05c0-6.65,5.58-12.05,12.47-12.05
						S281.25,558,281.25,564.65z"/>
					<path class="st4" d="M369.15,564.65c0,6.65-5.58,12.05-12.47,12.05c-6.89,0-12.47-5.39-12.47-12.05
						c0-6.65,5.58-12.05,12.47-12.05C363.57,552.61,369.15,558,369.15,564.65z"/>
					<path class="st9" d="M339.37,584.87c0,14.39-12.08,26.06-26.97,26.06c-14.9,0-26.97-11.67-26.97-26.06H339.37z"/>
				</g>
			</g>
			<g>
				<g>
					<g>
						<ellipse class="st10" cx="184.73" cy="480.06" rx="48.73" ry="47.08"/>
						<ellipse class="st10" cx="440.06" cy="480.06" rx="48.73" ry="47.08"/>
						<g>
							<path class="st7" d="M457.1,483.58l5.16-4.98c0.78-0.75,0.78-1.97,0-2.73c-0.78-0.75-2.04-0.75-2.82,0l-5.16,4.98l-5.16-4.98
								c-0.78-0.75-2.04-0.75-2.82,0c-0.78,0.75-0.78,1.97,0,2.73l5.16,4.98l-5.16,4.98c-0.78,0.75-0.78,1.97,0,2.73
								c0.39,0.38,0.9,0.57,1.41,0.57s1.02-0.19,1.41-0.57l5.16-4.98l5.16,4.98c0.39,0.38,0.9,0.57,1.41,0.57
								c0.51,0,1.02-0.19,1.41-0.57c0.78-0.75,0.78-1.97,0-2.73L457.1,483.58z"/>
							<path class="st7" d="M178.49,475.87c-0.78-0.75-2.04-0.75-2.82,0l-5.16,4.98l-5.16-4.98c-0.78-0.75-2.04-0.75-2.82,0
								c-0.78,0.75-0.78,1.97,0,2.73l5.16,4.98l-5.16,4.98c-0.78,0.75-0.78,1.97,0,2.73c0.39,0.38,0.9,0.57,1.41,0.57
								c0.51,0,1.02-0.19,1.41-0.57l5.16-4.98l5.16,4.98c0.39,0.38,0.9,0.57,1.41,0.57c0.51,0,1.02-0.19,1.41-0.57
								c0.78-0.75,0.78-1.97,0-2.73l-5.16-4.98l5.16-4.98C179.27,477.84,179.27,476.62,178.49,475.87z"/>
						</g>
					</g>
					<path class="st6" d="M312.39,295.29L312.39,295.29c-72.69,0-131.61,56.94-131.61,127.17v35.57c0,50.59,42.44,91.6,94.8,91.6
						h73.63c52.35,0,94.8-41.01,94.8-91.6v-35.57C444.01,352.23,385.08,295.29,312.39,295.29z"/>
					<g>
						<path class="st11" d="M399.51,479.38c-20.76,0-37.6,16.26-37.6,36.33c0,12.26,6.3,23.08,15.93,29.66
							c24.15-7.39,44.09-23.87,55.57-45.27C427.36,487.86,414.48,479.38,399.51,479.38z"/>
						<path class="st11" d="M262.87,515.71c0-20.06-16.83-36.33-37.6-36.33c-14.97,0-27.86,8.47-33.9,20.71
							c11.48,21.41,31.42,37.89,55.57,45.27C256.57,538.79,262.87,527.97,262.87,515.71z"/>
						<path class="st12" d="M269.05,406.59c1.92,7.81-6.77,16.5-19.41,19.4s-24.44-1.08-26.36-8.89c-1.92-7.81,6.77-16.5,19.41-19.4
							C255.33,394.79,267.13,398.77,269.05,406.59z"/>
						<path class="st12" d="M355.73,406.59c-1.92,7.81,6.77,16.5,19.41,19.4c12.64,2.9,24.44-1.08,26.36-8.89
							c1.92-7.81-6.77-16.5-19.41-19.4C369.46,394.79,357.65,398.77,355.73,406.59z"/>
						<g>
							<path class="st13" d="M331.99,480.16c0,10.46-8.77,18.94-19.6,18.94c-10.82,0-19.6-8.48-19.6-18.94H331.99z"/>
							<path class="st14" d="M324.83,494.68c-2.34-4.36-7-7.38-12.43-7.38c-5.44,0-10.1,3.01-12.43,7.38
								c3.39,2.71,7.69,4.41,12.43,4.41C317.14,499.09,321.43,497.39,324.83,494.68z"/>
						</g>
					</g>
					<g>
						<path class="st15" d="M246.17,462.91c-3.03,0-5.77,1.06-7.95,2.77l-6.24-3.64c-2.1-1.22-4.82-0.57-6.09,1.46
							c-1.26,2.03-0.59,4.66,1.51,5.88l6.29,3.66c-0.13,0.7-0.22,1.41-0.22,2.15c0,6.78,5.69,12.29,12.71,12.29
							s12.71-5.5,12.71-12.29C258.88,468.41,253.19,462.91,246.17,462.91z"/>
						<path class="st15" d="M398.91,463.5c-1.27-2.03-3.99-2.68-6.09-1.46l-6.25,3.64c-2.18-1.71-4.93-2.77-7.95-2.77
							c-7.02,0-12.71,5.5-12.71,12.29c0,6.78,5.69,12.29,12.71,12.29c7.02,0,12.71-5.5,12.71-12.29c0-0.74-0.1-1.45-0.22-2.15
							l6.29-3.66C399.49,468.16,400.17,465.53,398.91,463.5z"/>
					</g>
				</g>
			</g>
			<path class="st5" d="M312.39,295.29L312.39,295.29c-72.69,0-131.61,56.94-131.61,127.17v11.32c0,0,66.95-22.69,66.95-82.49
				c0,0,27.97,48.68,81.7,48.68l-19.67-57.49c0,0,54.02,84.42,134.24,90.66v-10.68C444.01,352.23,385.08,295.29,312.39,295.29z"/>
		</g>
	</g>
</g>
</svg>
